<svg width="50" height="50" viewBox="0 0 50 50" fill="none" xmlns="http://www.w3.org/2000/svg">
<path opacity="0.5" fill-rule="evenodd" clip-rule="evenodd" d="M20.3118 4.16699H18.2285C12.336 4.16699 9.38968 4.16699 7.5591 5.99757C5.72852 7.82816 5.72852 10.7744 5.72852 16.667V44.2712H32.8119V36.9796V33.8546V16.667C32.8119 10.7744 32.8119 7.82816 30.9813 5.99757C29.1507 4.16699 26.2044 4.16699 20.3118 4.16699Z" fill="#0000DE"/>
<path d="M5.72982 44.2705H3.64648C2.78354 44.2705 2.08398 44.9701 2.08398 45.833C2.08398 46.696 2.78354 47.3955 3.64648 47.3955H35.1536C36.0166 47.3955 36.7161 46.696 36.7161 45.833C36.7161 44.9701 36.0166 44.2705 35.1536 44.2705H32.8132H5.72982Z" fill="#0000DE"/>
<path d="M16.6667 12.5H22.9167C24.8809 12.5 25.8629 12.5 26.4731 13.1102C27.0833 13.7204 27.0833 14.7025 27.0833 16.6667C27.0833 18.6309 27.0833 19.6129 26.4731 20.2231C25.8629 20.8333 24.8809 20.8333 22.9167 20.8333H16.6667C14.7025 20.8333 13.7204 20.8333 13.1102 20.2231C12.5 19.6129 12.5 18.6309 12.5 16.6667C12.5 14.7025 12.5 13.7204 13.1102 13.1102C13.7204 12.5 14.7025 12.5 16.6667 12.5Z" fill="#0000DE"/>
<path d="M14.5833 33.8542C13.7204 33.8542 13.0208 34.5537 13.0208 35.4167C13.0208 36.2796 13.7204 36.9792 14.5833 36.9792H25C25.8629 36.9792 26.5625 36.2796 26.5625 35.4167C26.5625 34.5537 25.8629 33.8542 25 33.8542H14.5833Z" fill="#0000DE"/>
<path d="M32.8125 36.9789H36.0863C36.8671 36.9789 37.5 37.6118 37.5 38.3926V38.5414C37.5 41.1302 39.5987 43.2289 42.1875 43.2289C44.7763 43.2289 46.875 41.1302 46.875 38.5414V15.8367C46.875 15.5103 46.875 15.2851 46.8627 15.0655C46.7467 13.001 45.817 11.0666 44.2774 9.68638C44.1136 9.53957 43.9377 9.39891 43.6829 9.19505L41.0803 7.11296C40.4064 6.57388 39.4231 6.68313 38.8841 7.35698C38.345 8.03083 38.4542 9.0141 39.1281 9.55317L41.697 11.6083C41.998 11.8491 42.1011 11.9323 42.1914 12.0133C43.1152 12.8414 43.673 14.0021 43.7426 15.2408C43.7494 15.3618 43.75 15.4943 43.75 15.8798V16.6663H42.1875C40.4616 16.6663 39.0625 18.0655 39.0625 19.7913V24.8306C39.0625 26.1757 39.9232 27.3699 41.1993 27.7953L43.75 28.6455V38.5414C43.75 39.4043 43.0504 40.1039 42.1875 40.1039C41.3246 40.1039 40.625 39.4043 40.625 38.5414V38.3926C40.625 35.8859 38.593 33.8539 36.0863 33.8539H32.8125V36.9789Z" fill="#0000DE"/>
</svg>
