<svg width="24" height="24" viewBox="0 0 24 24" fill="none" xmlns="http://www.w3.org/2000/svg">
<path opacity="0.5" d="M14.2 3H9.8C5.65164 3 3.57746 3 2.28873 4.31802C1 5.63604 1 7.75736 1 12C1 16.2426 1 18.364 2.28873 19.682C3.57746 21 5.65164 21 9.8 21H14.2C18.3484 21 20.4225 21 21.7113 19.682C23 18.364 23 16.2426 23 12C23 7.75736 23 5.63604 21.7113 4.31802C20.4225 3 18.3484 3 14.2 3Z" fill="#0000DE"/>
<path d="M19.1274 8.034C19.4774 7.74231 19.5247 7.22209 19.233 6.87206C18.9413 6.52204 18.4211 6.47474 18.0711 6.76643L15.6963 8.74542C14.67 9.60063 13.9575 10.1925 13.356 10.5794C12.7737 10.9539 12.3788 11.0796 11.9992 11.0796C11.6197 11.0796 11.2248 10.9539 10.6425 10.5794C10.0409 10.1925 9.32843 9.60063 8.30218 8.74542L5.92739 6.76643C5.57736 6.47474 5.05715 6.52204 4.76546 6.87206C4.47377 7.22209 4.52106 7.74231 4.87109 8.034L7.28723 10.0475C8.26222 10.86 9.05247 11.5185 9.74994 11.9671C10.4765 12.4344 11.1841 12.7296 11.9992 12.7296C12.8144 12.7296 13.522 12.4344 14.2485 11.9671C14.946 11.5185 15.7363 10.86 16.7113 10.0474L19.1274 8.034Z" fill="#0000DE"/>
</svg>
