<svg width="50" height="50" viewBox="0 0 50 50" fill="none" xmlns="http://www.w3.org/2000/svg">
<path opacity="0.5" fill-rule="evenodd" clip-rule="evenodd" d="M45.8327 25.0003C45.8327 36.5063 36.5053 45.8337 24.9994 45.8337C13.4934 45.8337 4.16602 36.5063 4.16602 25.0003C4.16602 13.4944 13.4934 4.16699 24.9994 4.16699C36.5053 4.16699 45.8327 13.4944 45.8327 25.0003Z" fill="#0000DE"/>
<path fill-rule="evenodd" clip-rule="evenodd" d="M18.75 27.604C17.8871 27.604 17.1875 28.3035 17.1875 29.1665C17.1875 30.0294 17.8871 30.729 18.75 30.729H19.2708V35.4165C19.2708 36.2794 19.9704 36.979 20.8333 36.979C21.6963 36.979 22.3958 36.2794 22.3958 35.4165V30.729H25C25.8629 30.729 26.5625 30.0294 26.5625 29.1665C26.5625 28.3035 25.8629 27.604 25 27.604H22.3958V26.5623H28.125C31.8644 26.5623 34.8958 23.5309 34.8958 19.7915C34.8958 16.052 31.8644 13.0206 28.125 13.0206L23.2531 13.0206C22.9499 13.0202 22.6348 13.0198 22.3463 13.0655C20.7863 13.3126 19.5628 14.5361 19.3157 16.0961C19.27 16.3846 19.2704 16.6998 19.2708 17.003L19.2708 23.4373H18.75C17.8871 23.4373 17.1875 24.1369 17.1875 24.9998C17.1875 25.8627 17.8871 26.5623 18.75 26.5623H19.2708V27.604H18.75ZM28.125 23.4373H22.3958V17.0831C22.3958 16.8811 22.396 16.7609 22.3985 16.6702C22.4 16.6127 22.4022 16.5877 22.4028 16.5817C22.4391 16.3615 22.6117 16.1889 22.8319 16.1526C22.8379 16.152 22.8629 16.1498 22.9204 16.1483C23.0111 16.1458 23.1313 16.1456 23.3333 16.1456H28.125C30.1385 16.1456 31.7708 17.7779 31.7708 19.7915C31.7708 21.805 30.1385 23.4373 28.125 23.4373Z" fill="#0000DE"/>
</svg>
