<svg width="50" height="50" viewBox="0 0 50 50" fill="none" xmlns="http://www.w3.org/2000/svg">
<path opacity="0.5" d="M10.7748 6.60777C8.33398 9.04855 8.33398 12.9769 8.33398 20.8337V29.167C8.33398 37.0237 8.33398 40.9521 10.7748 43.3929C13.2155 45.8337 17.1439 45.8337 25.0007 45.8337C32.8574 45.8337 36.7858 45.8337 39.2265 43.3929C41.6673 40.9521 41.6673 37.0237 41.6673 29.167V20.8337C41.6673 12.9769 41.6673 9.04855 39.2265 6.60777C36.7858 4.16699 32.8574 4.16699 25.0007 4.16699C17.1439 4.16699 13.2155 4.16699 10.7748 6.60777Z" fill="#0000DE"/>
<path d="M18.75 8.85449C17.8871 8.85449 17.1875 9.55405 17.1875 10.417C17.1875 11.2799 17.8871 11.9795 18.75 11.9795H31.25C32.1129 11.9795 32.8125 11.2799 32.8125 10.417C32.8125 9.55405 32.1129 8.85449 31.25 8.85449H18.75Z" fill="#0000DE"/>
<path d="M25 39.5837C27.3012 39.5837 29.1667 37.7182 29.1667 35.417C29.1667 33.1158 27.3012 31.2503 25 31.2503C22.6988 31.2503 20.8333 33.1158 20.8333 35.417C20.8333 37.7182 22.6988 39.5837 25 39.5837Z" fill="#0000DE"/>
</svg>
