<svg width="327" height="157" viewBox="0 0 327 157" fill="none" xmlns="http://www.w3.org/2000/svg">
<path fill-rule="evenodd" clip-rule="evenodd" d="M221.745 131.374C222.937 131.374 223.534 131.672 223.534 133.163V140.617C223.534 142.108 223.236 142.407 221.745 142.407H220.85V131.374H221.745ZM310.004 138.828C311.197 138.828 311.495 139.127 311.495 140.617V143.599C311.495 144.792 311.197 145.388 310.004 145.388H308.811V139.127H310.004V138.828ZM212.8 133.163C212.8 131.672 213.396 131.374 214.589 131.374H215.483V142.407H214.589C213.396 142.407 212.8 142.108 212.8 140.617V133.163ZM109.333 155.824H327V119.745H109.333V155.824ZM132.889 125.411H127.224V134.654H124.242V125.411H118.875V148.966H124.242V138.53H127.224V148.966H132.889V125.411ZM178.51 125.411H165.39V148.966H178.51V144.494H171.055V138.828H177.913V134.356H171.055V129.585H178.51V125.411ZM228.603 133.461C228.603 128.691 226.217 127.498 220.85 127.498V125.709H215.483V127.498C209.818 127.498 207.432 128.691 207.432 133.461V140.916C207.432 145.686 209.818 146.879 215.483 146.879V149.264H220.85V146.879C226.217 146.879 228.603 145.686 228.603 140.916V133.461ZM270.943 125.411H256.929V129.883H261.402V148.966H266.769V129.883H270.943V125.411ZM317.16 140.617C317.16 135.847 315.073 134.654 309.706 134.654H308.811V125.411H303.146V148.966H308.811C314.775 148.966 317.16 148.072 317.16 143.003V140.617ZM94.7228 101.557V138.828C84.8831 149.264 70.5708 156.122 55.0658 156.122C24.9502 155.824 0.5 131.672 0.5 101.557C0.5 71.7394 24.9502 47.2892 55.0658 47.2892V88.1389C47.3132 88.1389 39.2626 91.1207 33.2991 97.0841C31.8082 98.575 30.6155 100.066 29.4228 101.557C21.3721 113.484 22.5648 129.585 33.2991 140.021C39.2626 145.985 47.0151 148.966 55.0658 148.966C62.8183 148.966 70.5708 145.985 76.5342 140.021C82.4977 134.058 82.4977 124.516 76.5342 118.553C70.5708 112.589 60.7311 112.589 54.7676 118.553V101.557H94.7228ZM87.8648 28.206C91.1448 42.5184 91.1448 51.4636 89.6539 61.6015C86.9703 79.7901 78.9196 93.8042 75.3416 98.575C72.9562 95.2951 69.0799 89.0334 66.6945 82.7718C66.6945 82.7718 61.9237 71.143 60.7311 60.1106C59.5384 48.78 60.1347 37.4494 63.7128 24.628C66.9927 12.9992 73.5525 2.8613 75.3416 0.177734C76.2361 1.96678 84.5849 13.5955 87.8648 28.206ZM75.3416 94.9969C77.1306 92.0152 79.8142 85.1572 79.516 76.5102C79.2178 67.5649 76.2361 61.0051 75.3416 59.5143C74.447 61.0051 70.8689 68.4595 70.8689 77.1065C71.1671 86.0517 73.5525 91.717 75.3416 94.9969ZM86.9703 52.6563C86.9703 47.2891 86.6721 37.7476 83.9886 27.9079C81.305 18.0681 75.9379 8.82477 75.3416 7.63207C74.447 8.82477 70.5708 16.2791 66.6945 28.206C65.8 31.7841 64.011 39.5366 63.7128 46.991C63.4146 55.9362 64.6073 65.1796 65.2037 67.5649C65.2037 64.5832 65.2037 54.4453 66.9927 46.3946C68.7817 38.0458 72.3598 28.5042 75.3416 23.7334C78.3233 28.8024 82.4977 39.8348 83.6904 46.3946C85.1813 52.9544 85.7776 61.3033 85.4795 67.5649C86.0758 63.9869 86.9703 58.0234 86.9703 52.6563ZM313.284 46.991H327V101.259H316.564V67.2668H316.266L310.6 101.557H302.252L296.884 67.5649H296.586V101.557H286.15V46.991H299.866L306.724 85.1572L313.284 46.991ZM238.442 77.1065C239.635 77.1065 240.53 76.212 240.53 74.4229V56.8307C240.53 55.0417 239.635 54.1471 238.442 54.1471H235.759V77.1065H238.442ZM225.323 46.991H241.722C249.177 46.991 250.071 52.9544 250.071 56.8307V73.2302C250.071 77.1065 248.879 83.07 241.722 83.07H235.759V101.557H225.323V46.991ZM193.716 46.991H217.868V101.259H208.029V53.5508H203.258V101.259H193.418V46.991H193.716ZM173.142 82.4736V92.6115C173.142 94.1024 174.037 94.4006 174.633 94.4006C175.528 94.4006 176.124 93.5061 176.124 92.6115V80.0882C176.124 78.2992 175.826 76.5102 171.95 76.5102H167.775V70.5467H172.248C175.23 70.5467 176.422 69.9503 176.422 66.3723V55.638C176.422 54.7435 175.826 53.849 174.932 53.849C174.335 53.849 173.441 54.1471 173.441 55.638V64.5832H163.005V56.8307C163.005 52.9544 163.601 46.991 170.757 46.991H179.404C186.858 46.991 187.157 52.9544 187.157 56.8307V65.4777C187.157 71.4412 183.28 72.9321 180 72.9321V73.5284C187.157 73.2302 187.157 78.8955 187.157 80.9828V92.0152C187.157 95.8914 186.56 101.855 179.404 101.855H170.459C163.303 101.855 162.706 95.8914 162.706 92.0152V82.7718H173.142V82.4736ZM146.605 80.9828L144.816 53.849H144.22L142.431 80.9828H146.605ZM136.169 46.991H152.568L157.936 101.259H147.798L146.903 86.9462H141.834L140.94 101.259H130.802L136.169 46.991ZM109.333 46.991H129.311V53.849H119.769V101.557H109.333V46.991ZM272.136 46.991C279.59 46.991 279.889 52.9544 279.889 56.8307V91.717C279.889 95.5933 279.292 101.557 272.136 101.557H263.489C256.035 101.557 255.737 95.5933 255.737 91.717V56.8307C255.737 52.9544 256.035 46.991 263.489 46.991H272.136ZM267.663 94.6987C268.856 94.6987 270.049 93.8042 270.049 92.6115V56.2344V55.9362V55.638C270.049 54.4453 268.856 53.849 267.663 53.849C266.471 53.849 265.576 54.7435 265.278 55.638V55.9362V56.2344V92.6115C265.576 93.8042 266.471 94.6987 267.663 94.6987Z" fill="#1A7FC3"/>
</svg>
