<svg width="391" height="201" viewBox="0 0 391 201" fill="none" xmlns="http://www.w3.org/2000/svg">
<g clip-path="url(#clip0_122_1014)">
<path fill-rule="evenodd" clip-rule="evenodd" d="M149.043 150.14V146.685H140.239V150.14H139.211V142.729H140.239V145.942H149.043V142.729H150.059V150.14H149.043Z" fill="#201C26"/>
<path fill-rule="evenodd" clip-rule="evenodd" d="M153.523 150.14V142.729H162.293V143.468H154.536V145.942H162.088V146.675H154.536V149.397H162.293V150.14H153.523Z" fill="#201C26"/>
<path fill-rule="evenodd" clip-rule="evenodd" d="M180.086 146.872V145.949C180.086 144.187 179.21 143.3 176.433 143.3H173.411V142.642H172.38V143.3H169.394C166.599 143.3 165.723 144.039 165.723 145.949V146.872C165.723 148.757 166.713 149.409 169.394 149.409H172.38V150.138H173.411V149.409H176.433C179.098 149.409 180.086 148.792 180.086 146.872ZM179.054 146.872C179.054 148.3 178.362 148.676 176.433 148.676H173.411V144.041H176.433C178.265 144.041 179.054 144.47 179.054 145.908V146.872ZM172.38 148.676H169.394C167.463 148.676 166.727 148.3 166.727 146.862V145.876C166.727 144.458 167.534 144.041 169.394 144.041H172.38V148.676Z" fill="#201C26"/>
<path fill-rule="evenodd" clip-rule="evenodd" d="M187.923 143.468V150.14H188.947V143.468H193.789V142.729H183.117V143.468H187.923Z" fill="#201C26"/>
<path fill-rule="evenodd" clip-rule="evenodd" d="M206.713 150.14V142.73H200.039C197.574 142.73 196.558 143.34 196.558 145.025C196.558 146.418 197.574 147.068 199.518 147.068L196.148 150.142H197.574L200.745 147.068H205.68V150.142L206.713 150.14ZM205.68 146.335H199.717C198.13 146.335 197.576 146.129 197.576 145.025C197.576 143.875 198.157 143.468 199.615 143.468H205.68V146.335Z" fill="#201C26"/>
<path fill-rule="evenodd" clip-rule="evenodd" d="M220.271 150.14V146.685H211.474V150.14H210.449V142.729H211.474V145.942H220.271V142.729H221.3V150.14H220.271Z" fill="#201C26"/>
<path fill-rule="evenodd" clip-rule="evenodd" d="M235.856 150.14L230.724 142.73H229.148L224.02 150.14H225.151L226.425 148.281H233.391L234.653 150.14H235.856ZM232.856 147.524H226.981L229.91 143.261L232.856 147.524Z" fill="#201C26"/>
<path fill-rule="evenodd" clip-rule="evenodd" d="M247.557 150.14V147.066H242.624L239.437 150.14H238.031L241.376 147.066C239.437 147.066 238.433 146.416 238.433 145.023C238.433 143.338 239.437 142.729 241.902 142.729H248.589V150.138L247.557 150.14ZM247.557 143.468H241.494C240.039 143.468 239.437 143.873 239.437 145.025C239.437 146.131 239.997 146.335 241.591 146.335H247.557V143.468Z" fill="#201C26"/>
<path fill-rule="evenodd" clip-rule="evenodd" d="M267.595 150.14H269.394L262.229 146.256L269.234 142.729H267.418L261.164 145.908H259.501V142.729H258.473V150.14H259.501V146.653H261.207L267.595 150.14Z" fill="#201C26"/>
<path fill-rule="evenodd" clip-rule="evenodd" d="M282.727 147.599C282.727 149.049 282.242 149.399 280.161 149.399H275.826C273.897 149.399 273.177 149.027 273.177 147.599V145.234C273.177 143.792 273.966 143.401 275.826 143.401H280.161C282.137 143.401 282.727 143.768 282.727 145.234V147.599ZM283.743 147.599V145.28C283.743 143.126 282.563 142.642 280.161 142.642H275.836C273.023 142.642 272.148 143.399 272.148 145.28V147.599C272.148 149.503 273.146 150.14 275.836 150.14H280.161C282.794 150.14 283.743 149.709 283.743 147.599Z" fill="#201C26"/>
<path fill-rule="evenodd" clip-rule="evenodd" d="M299.324 142.729H301.529V150.14H300.501V143.33H299.931L294.584 150.14H294.058L288.72 143.33H288.141V150.14H287.121V142.729H289.312L294.334 149.049L299.324 142.729Z" fill="#201C26"/>
<path fill-rule="evenodd" clip-rule="evenodd" d="M306.24 150.14V143.468H315.015V150.14H316.052V142.729H305.199V150.14H306.24Z" fill="#201C26"/>
<path fill-rule="evenodd" clip-rule="evenodd" d="M329.411 150.14L328.152 148.281H321.186L319.894 150.14H318.762L323.902 142.73H325.46L330.592 150.14H329.411ZM324.679 143.259L321.729 147.522H327.614L324.679 143.259Z" fill="#201C26"/>
<path fill-rule="evenodd" clip-rule="evenodd" d="M344.377 150.14V142.729H343.357V145.942H334.572V142.729H333.531V150.14H334.572V146.685H343.357V150.14H344.377Z" fill="#201C26"/>
<path fill-rule="evenodd" clip-rule="evenodd" d="M358.748 150.14V142.729H356.748L348.918 149.563H348.829V142.729H347.816V150.14H349.482L357.332 143.302H357.711V150.14H358.748Z" fill="#201C26"/>
<path fill-rule="evenodd" clip-rule="evenodd" d="M371.138 146.335H365.16C363.566 146.335 363.03 146.129 363.03 145.025C363.03 143.875 363.594 143.468 365.049 143.468H371.138V146.335ZM372.146 150.14V142.73H365.479C363.03 142.73 362.002 143.34 362.002 145.025C362.002 146.418 363.03 147.068 364.967 147.068L361.586 150.142H363.03L366.184 147.068H371.138V150.142L372.146 150.14Z" fill="#201C26"/>
<path fill-rule="evenodd" clip-rule="evenodd" d="M139.124 161.12C139.124 161.12 161.429 160.821 163.216 162.015C165.001 163.194 166.784 164.397 167.082 166.76C167.378 169.138 165.893 176.549 160.24 176.851C154.595 177.147 148.061 176.549 148.061 176.549L147.769 182.489L138.848 182.193L139.124 161.12Z" fill="#201C26"/>
<path fill-rule="evenodd" clip-rule="evenodd" d="M148.347 167.051L148.059 170.619C148.059 170.619 155.187 172.098 156.671 170.619C158.158 169.139 156.966 166.762 154.594 166.762C152.221 166.762 148.347 167.051 148.347 167.051Z" fill="white"/>
<path fill-rule="evenodd" clip-rule="evenodd" d="M167.085 166.762C169.474 164.095 173.633 159.936 183.13 160.525C192.646 161.123 197.711 164.97 197.711 169.448C197.711 173.885 197.993 179.818 192.345 181.59C186.704 183.38 181.047 183.38 177.187 182.797C173.32 182.195 167.085 178.627 166.196 173.887C165.302 169.138 167.085 166.762 167.085 166.762Z" fill="#241C24"/>
<path fill-rule="evenodd" clip-rule="evenodd" d="M176.006 172.396C175.462 168.563 178.672 166.161 181.347 166.161C184.019 166.161 188.467 166.463 188.173 171.511C187.883 176.552 187.597 176.254 184.923 177.149C182.246 178.038 176.893 178.937 176.006 172.396Z" fill="white"/>
<path fill-rule="evenodd" clip-rule="evenodd" d="M229.495 169.447C228.016 166.762 224.756 161.707 219.691 161.422C214.64 161.122 207.798 160.525 204.532 161.707C201.254 162.906 198.601 165.863 197.999 168.534C197.408 171.213 196.796 177.149 200.67 179.818C204.53 182.489 210.788 184.572 216.723 183.38C222.657 182.195 228.31 179.818 229.202 174.771H219.103C219.103 174.771 216.415 178.337 213.157 178.038C213.157 178.038 210.165 178.937 208.092 175.974C206.023 172.991 206.313 170.324 208.388 167.649C210.488 164.97 216.123 165.861 216.721 167.052C217.312 168.242 218.204 170.018 218.204 170.018L229.495 169.447Z" fill="#241C24"/>
<path fill-rule="evenodd" clip-rule="evenodd" d="M228.613 161.707H237.832V168.84H247.031V161.12H256.553V182.489H247.628V175.366H238.13V182.489H228.312L228.613 161.707Z" fill="#241C24"/>
<path fill-rule="evenodd" clip-rule="evenodd" d="M259.535 161.12L285.988 161.422V166.762H269.941V168.84H283.319V174.771H269.339V177.454H286.579V183.084H259.827L259.535 161.12Z" fill="#241C24"/>
<path fill-rule="evenodd" clip-rule="evenodd" d="M299.657 161.12H308.874C308.874 161.12 308.286 162.609 309.487 162.315C310.657 162.017 318.684 161.705 321.072 164.688C323.443 167.649 324.341 171.509 321.954 174.182C319.566 176.855 317.489 178.038 316.019 178.038C314.518 178.038 309.487 178.335 309.487 178.335V183.084H299.657V178.038C299.657 178.038 293.411 177.74 291.332 177.149C289.261 176.551 285.387 174.182 285.387 170.326C285.387 166.464 287.468 163.196 290.452 162.906C293.411 162.611 299.063 162.611 299.063 162.611L299.657 161.12Z" fill="#241C24"/>
<path fill-rule="evenodd" clip-rule="evenodd" d="M299.658 167.649L299.362 172.098C299.362 172.098 294.609 172.696 294.609 170.926C294.609 169.138 295.506 167.355 299.658 167.649Z" fill="white"/>
<path fill-rule="evenodd" clip-rule="evenodd" d="M309.484 167.945L309.766 172.1C309.766 172.1 312.442 173.293 313.939 171.213C315.408 169.137 312.734 167.649 309.484 167.945Z" fill="white"/>
<path fill-rule="evenodd" clip-rule="evenodd" d="M328.191 167.649V183.38H337.701V167.649H346.315L348.115 165.282L345.441 162.018H320.471C320.477 162.018 319.276 166.762 321.95 167.052C324.623 167.356 328.191 167.649 328.191 167.649Z" fill="#241C24"/>
<path fill-rule="evenodd" clip-rule="evenodd" d="M355.835 162.018V167.945C355.835 167.945 367.142 167.356 369.225 168.534C371.304 169.725 373.384 171.511 373.68 173.577C373.976 175.667 373.384 178.937 371.304 180.709C369.225 182.489 366.854 183.674 364.456 183.674H347.23V162.315L355.835 162.018Z" fill="#241C24"/>
<path fill-rule="evenodd" clip-rule="evenodd" d="M356.742 174.182V177.74H362.677C364.156 177.74 366.248 174.478 363.566 173.887C360.896 173.291 356.742 174.182 356.742 174.182Z" fill="white"/>
<path fill-rule="evenodd" clip-rule="evenodd" d="M17.25 63.1885H32.4169V114.534L17.25 101.173V63.1885Z" fill="#241C24"/>
<path fill-rule="evenodd" clip-rule="evenodd" d="M35.3945 46.2744H49.959V131.155L35.3945 117.188V46.2744Z" fill="#241C24"/>
<path fill-rule="evenodd" clip-rule="evenodd" d="M52.9336 29.3613H67.7982V109.781H52.9336V29.3613Z" fill="#241C24"/>
<path fill-rule="evenodd" clip-rule="evenodd" d="M70.7617 12.4463H86.2207V93.1634H70.7617V12.4463Z" fill="#241C24"/>
<path fill-rule="evenodd" clip-rule="evenodd" d="M88.3008 28.4619H103.169V109.78H88.3008V28.4619Z" fill="#241C24"/>
<path fill-rule="evenodd" clip-rule="evenodd" d="M106.738 45.9629H121.303V116.895L106.738 131.155V45.9629Z" fill="#241C24"/>
<path fill-rule="evenodd" clip-rule="evenodd" d="M123.969 62.8887H138.846V99.9899L123.969 114.534V62.8887Z" fill="#241C24"/>
<path fill-rule="evenodd" clip-rule="evenodd" d="M52.9336 111.575H67.7982V186.039H52.9336V111.575Z" fill="#B3B31C"/>
<path fill-rule="evenodd" clip-rule="evenodd" d="M70.7617 95.5488H85.3221V186.039H70.7617V95.5488Z" fill="#B3B31C"/>
<path fill-rule="evenodd" clip-rule="evenodd" d="M88.3008 111.858H103.169V186.039H88.3008V111.858Z" fill="#B3B31C"/>
</g>
<defs>
<clipPath id="clip0_122_1014">
<rect width="391" height="201" fill="white"/>
</clipPath>
</defs>
</svg>
