<svg width="27" height="27" viewBox="0 0 27 27" fill="none" xmlns="http://www.w3.org/2000/svg">
<path fill-rule="evenodd" clip-rule="evenodd" d="M9.84375 2.25H10.9688C14.1507 2.25 15.7417 2.25 16.7302 3.23851C17.7188 4.22703 17.7188 5.81802 17.7188 9V18.2813H19.4866C20.8402 18.2813 21.9375 19.3786 21.9375 20.7322V20.8125C21.9375 21.2785 22.3153 21.6563 22.7812 21.6563C23.2472 21.6563 23.625 21.2785 23.625 20.8125V15.4688L22.2476 15.0096C21.5585 14.7799 21.0938 14.1351 21.0938 13.4087V10.6875C21.0938 9.75552 21.8493 9 22.7812 9H23.625V8.57528C23.625 8.36711 23.6247 8.29557 23.621 8.23019C23.5834 7.56128 23.2822 6.93455 22.7834 6.48735C22.7346 6.44364 22.6789 6.39871 22.5164 6.26866L21.1292 5.15889C20.7653 4.86779 20.7063 4.33682 20.9974 3.97294C21.2885 3.60907 21.8195 3.55007 22.1833 3.84117L23.5887 4.9655C23.7264 5.07559 23.8213 5.15154 23.9098 5.23082C24.7412 5.97616 25.2432 7.02071 25.3059 8.13556C25.3125 8.25415 25.3125 8.37575 25.3125 8.55199V20.8125C25.3125 22.2105 24.1792 23.3438 22.7812 23.3438C21.3833 23.3438 20.25 22.2105 20.25 20.8125V20.7322C20.25 20.3106 19.9082 19.9688 19.4866 19.9688H17.7188V23.9062H18.9826C19.4486 23.9062 19.8264 24.284 19.8264 24.75C19.8264 25.216 19.4486 25.5938 18.9826 25.5938H1.96875C1.50276 25.5938 1.125 25.216 1.125 24.75C1.125 24.284 1.50276 23.9062 1.96875 23.9062H3.09375V9C3.09375 5.81802 3.09375 4.22703 4.08226 3.23851C5.07078 2.25 6.66177 2.25 9.84375 2.25ZM7.875 18.2812C7.40901 18.2812 7.03125 18.659 7.03125 19.125C7.03125 19.591 7.40901 19.9688 7.875 19.9688H13.5C13.966 19.9688 14.3438 19.591 14.3438 19.125C14.3438 18.659 13.966 18.2812 13.5 18.2812H7.875ZM12.375 6.75H9C7.93934 6.75 7.40901 6.75 7.0795 7.0795C6.75 7.40901 6.75 7.93934 6.75 9C6.75 10.0607 6.75 10.591 7.0795 10.9205C7.40901 11.25 7.93934 11.25 9 11.25H12.375C13.4357 11.25 13.966 11.25 14.2955 10.9205C14.625 10.591 14.625 10.0607 14.625 9C14.625 7.93934 14.625 7.40901 14.2955 7.0795C13.966 6.75 13.4357 6.75 12.375 6.75Z" fill="white"/>
</svg>
