<svg width="86" height="10" viewBox="0 0 86 10" fill="none" xmlns="http://www.w3.org/2000/svg">
<path d="M4.86459 1.42988C3.96546 1.42988 3.21338 1.745 2.60836 2.37523C2.00334 2.99706 1.70082 3.77855 1.70082 4.7197C1.70082 5.66085 2.00334 6.44654 2.60836 7.07677C3.21338 7.6986 3.96546 8.00951 4.86459 8.00951C5.86456 8.00951 6.65025 7.61457 7.22166 6.82468H8.50734C8.16281 7.52213 7.67543 8.07254 7.0452 8.47588C6.42337 8.87083 5.6965 9.0683 4.86459 9.0683C3.64614 9.0683 2.62517 8.65235 1.80166 7.82044C0.978158 6.98854 0.566406 5.95495 0.566406 4.7197C0.566406 3.48444 0.978158 2.45086 1.80166 1.61895C2.62517 0.787047 3.64614 0.371094 4.86459 0.371094C5.6965 0.371094 6.42337 0.572768 7.0452 0.976117C7.67543 1.37106 8.16281 1.91726 8.50734 2.61472H7.22166C6.65025 1.82483 5.86456 1.42988 4.86459 1.42988Z" fill="white"/>
<path d="M19.2823 1.59374H14.7447V4.1903H19.1941V5.24909H14.7447V7.84565H19.2823V8.90444H13.6103V0.534954H19.2823V1.59374Z" fill="white"/>
<path d="M23.9411 0.534954H30.8737V1.59374H27.9746V8.90444H26.8402V1.59374H23.9411V0.534954Z" fill="white"/>
<path d="M41.797 4.59365C42.2844 5.06423 42.5281 5.66505 42.5281 6.39612C42.5281 7.12719 42.2844 7.72801 41.797 8.19858C41.318 8.66916 40.608 8.90444 39.6668 8.90444H35.7846V0.534954H36.919V3.88779H39.6668C40.608 3.88779 41.318 4.12308 41.797 4.59365ZM40.9273 7.48012C41.2382 7.22802 41.3937 6.86669 41.3937 6.39612C41.3937 5.92554 41.2382 5.56841 40.9273 5.32472C40.6248 5.07263 40.2046 4.94658 39.6668 4.94658H36.919V7.84565H39.6668C40.2046 7.84565 40.6248 7.72381 40.9273 7.48012Z" fill="white"/>
<path d="M55.0146 6.96333L54.17 8.90444H52.9978L56.6784 0.534954H57.9136L61.5816 8.90444H60.3715L59.527 6.96333H55.0146ZM59.0733 5.91714L57.2708 1.77021L55.4683 5.91714H59.0733Z" fill="white"/>
<path d="M71.1214 6.54737C71.1214 6.13562 70.9786 5.8163 70.6929 5.58942C70.4156 5.36254 70.0332 5.24909 69.5459 5.24909H67.4661V4.1903H69.5459C70.0164 4.1903 70.3904 4.07266 70.6677 3.83737C70.945 3.59368 71.0836 3.27857 71.0836 2.89202C71.0836 2.39624 70.8777 2.03071 70.466 1.79542C70.0626 1.55173 69.55 1.42988 68.9282 1.42988C68.382 1.42988 67.9114 1.53912 67.5165 1.75761C67.1216 1.96768 66.8359 2.25339 66.6594 2.61472H65.4241C65.6174 2.02651 66.0208 1.50551 66.6342 1.05175C67.256 0.597978 68.0207 0.371094 68.9282 0.371094C69.508 0.371094 70.0374 0.455125 70.5164 0.623187C70.9954 0.782846 71.3987 1.06015 71.7265 1.45509C72.0542 1.85004 72.218 2.33742 72.218 2.91723C72.218 3.69872 71.8567 4.29954 71.134 4.7197C71.8819 5.13985 72.2559 5.74908 72.2559 6.54737C72.2559 7.32886 71.9281 7.94649 71.2727 8.40026C70.6172 8.84562 69.8316 9.0683 68.9156 9.0683C67.9409 9.0683 67.1636 8.85402 66.5838 8.42547C66.0039 7.98851 65.6048 7.45491 65.3863 6.82468H66.6216C67.0501 7.61457 67.8148 8.00951 68.9156 8.00951C69.5374 8.00951 70.0584 7.88767 70.4786 7.64398C70.9072 7.39188 71.1214 7.02635 71.1214 6.54737Z" fill="white"/>
<path d="M81.4039 1.42988C80.5047 1.42988 79.7527 1.745 79.1476 2.37523C78.5426 2.99706 78.2401 3.77855 78.2401 4.7197C78.2401 5.66085 78.5426 6.44654 79.1476 7.07677C79.7527 7.6986 80.5047 8.00951 81.4039 8.00951C82.4038 8.00951 83.1895 7.61457 83.7609 6.82468H85.0466C84.7021 7.52213 84.2147 8.07254 83.5845 8.47588C82.9627 8.87083 82.2358 9.0683 81.4039 9.0683C80.1854 9.0683 79.1645 8.65235 78.341 7.82044C77.5174 6.98854 77.1057 5.95495 77.1057 4.7197C77.1057 3.48444 77.5174 2.45086 78.341 1.61895C79.1645 0.787047 80.1854 0.371094 81.4039 0.371094C82.2358 0.371094 82.9627 0.572768 83.5845 0.976117C84.2147 1.37106 84.7021 1.91726 85.0466 2.61472H83.7609C83.1895 1.82483 82.4038 1.42988 81.4039 1.42988Z" fill="white"/>
</svg>
